<?xml version="1.0" standalone="no"?>
<!DOCTYPE svg PUBLIC "-//W3C//DTD SVG 20010904//EN"
 "http://www.w3.org/TR/2001/REC-SVG-20010904/DTD/svg10.dtd">
<svg version="1.0" xmlns="http://www.w3.org/2000/svg"
 width="817.000000pt" height="817.000000pt" viewBox="0 0 817.000000 817.000000"
 preserveAspectRatio="xMidYMid meet">
<metadata>
Created by potrace 1.14, written by Peter Selinger 2001-2017
</metadata>
<g transform="translate(0.000000,817.000000) scale(0.100000,-0.100000)"
fill="#000000" stroke="none">
<path d="M3839 8165 c-2 -1 -47 -6 -99 -9 -52 -4 -126 -11 -165 -17 -38 -6
-85 -12 -104 -15 -19 -2 -46 -6 -60 -9 -14 -2 -42 -7 -61 -10 -19 -3 -60 -11
-90 -17 -30 -7 -59 -13 -65 -14 -5 -1 -13 -3 -17 -4 -5 -1 -11 -3 -15 -4 -32
-8 -72 -17 -90 -21 -39 -8 -55 -13 -143 -40 -47 -14 -92 -27 -100 -29 -8 -2
-35 -12 -60 -21 -25 -9 -61 -21 -80 -27 -19 -5 -39 -14 -45 -18 -5 -5 -13 -9
-17 -9 -13 -2 -42 -12 -68 -23 -14 -6 -30 -12 -36 -14 -32 -6 -355 -164 -464
-227 -81 -46 -254 -153 -275 -169 -5 -4 -68 -51 -140 -104 -71 -52 -131 -100
-133 -105 -2 -5 -8 -9 -13 -9 -5 0 -17 -8 -27 -17 -10 -10 -42 -38 -72 -63
-67 -56 -354 -341 -397 -395 -17 -22 -46 -56 -63 -75 -17 -19 -50 -60 -73 -90
-23 -30 -46 -60 -52 -66 -5 -6 -17 -22 -25 -34 -8 -13 -24 -35 -36 -49 -11
-14 -47 -66 -80 -116 -32 -49 -62 -92 -67 -93 -4 -2 -5 -7 -2 -12 3 -5 -1 -14
-8 -22 -16 -16 -97 -157 -97 -168 0 -5 -3 -10 -7 -12 -11 -4 -93 -170 -93
-185 0 -7 -5 -13 -11 -13 -6 0 -9 -7 -7 -16 2 -13 15 -17 63 -16 33 1 106 2
163 2 l103 2 30 60 c38 76 158 272 218 358 55 78 155 213 173 231 8 8 24 28
36 44 68 88 261 288 396 408 83 75 305 251 340 269 11 6 23 14 26 18 24 31
328 209 510 297 276 134 700 273 935 307 19 3 49 8 120 21 17 3 53 8 80 11 28
2 61 7 75 9 93 19 601 26 762 12 102 -9 252 -29 323 -43 11 -2 34 -7 50 -10
90 -16 261 -56 335 -79 47 -14 92 -27 100 -29 130 -32 637 -249 648 -278 2 -4
12 -8 23 -8 10 0 19 -4 19 -10 0 -5 5 -10 11 -10 32 0 372 -226 519 -345 195
-157 427 -383 536 -521 16 -20 37 -46 47 -58 10 -11 44 -55 75 -96 32 -41 59
-77 62 -80 3 -3 10 -13 15 -22 6 -9 29 -44 53 -78 23 -33 42 -63 42 -65 0 -2
13 -23 29 -47 16 -24 57 -94 91 -155 54 -99 65 -113 89 -114 88 -1 296 3 299
6 6 5 -71 160 -125 253 -24 41 -43 75 -43 77 0 11 -193 309 -210 325 -3 3 -17
21 -30 40 -13 19 -27 37 -30 40 -3 3 -27 32 -52 65 -47 62 -53 69 -141 170
-101 116 -368 375 -456 442 -12 10 -33 27 -44 38 -12 11 -65 51 -117 90 -52
38 -97 73 -98 78 -2 4 -8 5 -13 1 -5 -3 -9 -1 -9 3 0 5 -22 22 -50 38 -27 17
-50 33 -50 38 0 4 -5 7 -11 7 -6 0 -29 13 -52 29 -23 16 -58 37 -77 48 -19 11
-76 43 -126 71 -51 29 -96 52 -102 52 -5 0 -15 7 -22 15 -7 9 -15 14 -17 11
-2 -2 -43 15 -91 39 -75 37 -179 80 -376 156 -27 10 -55 19 -62 19 -8 0 -22 4
-32 10 -14 8 -69 25 -147 46 -78 22 -247 64 -270 68 -16 2 -66 12 -110 20 -44
9 -100 18 -125 21 -25 2 -55 6 -67 9 -12 3 -50 8 -85 11 -35 4 -83 9 -108 11
-55 6 -586 14 -591 9z"/>
<path d="M2847 5894 c-1 -1 -34 -5 -72 -8 -39 -3 -81 -8 -95 -11 -14 -3 -36
-7 -50 -10 -14 -2 -46 -11 -72 -19 -26 -7 -49 -11 -52 -8 -4 3 -6 1 -6 -4 0
-5 -8 -10 -18 -11 -27 -2 -234 -103 -252 -123 -3 -3 -21 -17 -40 -30 -196
-137 -384 -420 -446 -675 -3 -11 -7 -27 -9 -35 -2 -8 -4 -16 -5 -17 -3 -4 -5
-12 -14 -63 -5 -25 -10 -54 -12 -65 -2 -11 -6 -36 -8 -55 -3 -19 -8 -62 -12
-95 -10 -76 -10 -387 -1 -485 7 -65 15 -118 33 -218 38 -200 153 -463 270
-613 30 -38 224 -229 234 -229 4 0 32 -16 61 -36 105 -70 263 -130 396 -149
23 -3 57 -8 75 -11 44 -6 283 -6 333 1 22 3 58 8 80 11 236 33 470 145 614
293 85 88 84 87 128 161 53 88 89 179 110 280 11 53 21 152 20 194 l-2 50
-223 -1 c-122 0 -224 -2 -226 -4 -3 -3 -8 -31 -11 -64 -18 -182 -109 -333
-256 -430 -59 -38 -169 -81 -235 -90 -21 -4 -50 -8 -64 -11 -93 -16 -283 2
-365 35 -68 28 -137 65 -162 88 -7 6 -23 20 -35 30 -28 22 -128 137 -128 146
0 4 -7 15 -15 24 -8 10 -14 20 -13 23 2 3 -7 19 -20 37 -12 17 -22 33 -22 36
0 3 -5 18 -12 34 -6 15 -12 30 -13 33 -1 3 -5 14 -9 25 -20 52 -27 72 -31 90
-2 11 -9 40 -16 65 -6 25 -12 58 -14 74 -3 15 -6 35 -9 45 -11 38 -19 166 -19
311 0 198 11 324 39 425 8 28 17 61 20 75 6 29 65 173 73 180 4 3 12 16 19 30
30 61 90 141 151 199 138 131 301 192 493 186 102 -4 112 -6 184 -30 187 -63
345 -225 439 -447 30 -73 23 -70 105 -53 14 3 37 7 53 10 15 3 42 8 60 11 17
3 41 8 52 9 29 5 177 35 197 41 15 4 14 12 -9 82 -83 258 -251 482 -454 604
-105 64 -280 127 -394 143 -95 13 -311 26 -318 19z"/>
<path d="M4689 5822 c-1 -9 -2 -654 -3 -1433 l-1 -1416 43 1 c24 1 46 -2 48
-6 3 -4 16 -3 29 2 17 6 25 6 25 -1 0 -6 5 -7 12 -3 17 11 121 11 136 1 6 -5
12 -6 12 -1 0 5 36 9 80 9 44 0 80 -4 80 -8 0 -5 5 -5 12 -1 17 11 121 11 136
1 6 -5 12 -6 12 -1 0 5 53 8 118 6 153 -3 184 -2 194 4 4 3 8 0 8 -6 0 -6 5
-8 12 -4 17 11 121 11 136 1 6 -5 12 -6 12 -1 0 5 53 8 118 6 153 -3 184 -2
194 4 4 3 8 0 8 -6 0 -6 5 -8 12 -4 17 11 121 11 136 1 6 -5 12 -6 12 -1 0 5
49 8 108 8 l109 -1 -1 186 -1 186 -675 0 c-371 0 -680 3 -686 7 -7 5 -10 148
-10 440 l1 433 635 2 c349 0 640 1 646 2 7 1 10 61 10 184 l-1 182 -645 1
-645 0 0 432 c-1 340 2 432 12 436 7 3 312 5 678 5 365 0 669 2 673 5 5 3 8
85 8 183 l-1 178 -897 2 c-832 1 -898 0 -899 -15z"/>
<path d="M83 3223 c3 -10 11 -43 17 -73 7 -30 17 -67 22 -81 5 -15 11 -37 13
-50 2 -13 11 -48 20 -78 9 -30 18 -62 20 -70 2 -9 16 -50 30 -91 120 -342 255
-622 443 -915 55 -85 144 -209 154 -213 5 -2 8 -8 8 -14 0 -8 91 -125 135
-174 6 -6 33 -37 60 -70 109 -128 372 -382 497 -479 7 -5 36 -29 64 -52 29
-24 56 -43 62 -43 6 0 12 -4 14 -9 3 -10 215 -160 238 -169 8 -3 17 -9 20 -12
9 -12 193 -117 320 -182 157 -81 466 -213 545 -232 6 -2 17 -6 25 -9 15 -6
130 -40 140 -42 3 0 11 -4 18 -8 6 -5 12 -6 12 -3 0 3 15 -1 34 -9 18 -8 36
-11 39 -8 4 3 12 1 19 -4 7 -6 29 -13 48 -17 32 -5 80 -16 135 -29 34 -8 221
-41 295 -51 43 -6 128 -16 201 -22 75 -7 612 -13 623 -6 4 2 40 6 80 7 39 2
85 6 101 9 17 3 57 8 90 11 33 4 67 8 75 10 8 3 31 7 50 10 37 6 68 12 110 21
14 3 36 7 50 8 14 2 56 11 94 21 39 9 79 19 90 21 128 24 536 171 704 252 34
17 62 27 62 24 0 -4 4 -2 8 3 4 6 43 28 87 50 44 22 82 43 83 48 2 4 10 7 18
7 8 0 20 5 27 10 7 6 44 29 82 52 39 22 108 66 155 97 47 31 89 58 94 60 5 2
16 10 25 18 9 8 48 38 87 66 101 74 130 97 249 200 77 67 316 306 377 377 26
30 59 69 73 85 15 17 73 93 131 170 57 77 109 145 114 152 6 7 10 16 10 21 0
4 8 17 18 28 9 11 25 33 35 49 101 168 114 191 191 340 74 144 206 449 206
477 0 4 5 19 12 35 6 15 12 30 13 33 1 3 11 37 24 75 19 59 71 256 95 358 l6
27 -154 0 -154 0 -7 -32 c-8 -39 -45 -177 -53 -198 -3 -8 -7 -22 -8 -30 -2
-16 -70 -213 -84 -245 -5 -11 -28 -65 -51 -120 -39 -96 -131 -286 -179 -370
-58 -104 -79 -138 -153 -249 -245 -368 -525 -666 -876 -931 -120 -91 -210
-153 -261 -183 -19 -11 -66 -38 -103 -61 -143 -88 -386 -205 -559 -270 -207
-77 -288 -102 -470 -145 -79 -19 -159 -37 -178 -40 -19 -3 -44 -8 -55 -10 -11
-2 -42 -7 -70 -10 -27 -4 -66 -10 -85 -12 -19 -3 -46 -7 -59 -9 -115 -19 -599
-27 -761 -12 -157 15 -262 28 -273 34 -4 2 -24 6 -45 8 -20 3 -48 7 -62 10
-14 3 -41 8 -60 11 -19 3 -42 7 -50 10 -8 3 -28 8 -45 10 -16 3 -37 8 -45 11
-20 8 -17 7 -85 22 -33 7 -64 16 -70 19 -5 4 -17 8 -26 9 -8 1 -56 16 -105 33
-49 17 -93 33 -99 34 -5 2 -23 8 -40 15 -16 6 -43 17 -60 23 -16 6 -49 20 -72
30 -53 23 -96 41 -103 42 -20 5 -206 100 -208 107 -2 5 -10 9 -17 9 -20 0
-372 214 -395 239 -3 3 -27 22 -55 41 -27 19 -55 39 -61 45 -7 5 -26 21 -44
35 -17 14 -40 32 -50 40 -10 8 -38 31 -61 50 -344 279 -706 737 -922 1165 -89
177 -211 464 -222 525 0 3 -6 21 -13 41 -7 20 -14 45 -16 55 -2 10 -11 39 -19
64 -8 25 -19 61 -23 80 -4 19 -9 37 -10 40 0 3 -5 20 -9 38 l-7 32 -155 0
c-142 0 -154 -1 -150 -17z"/>
</g>
</svg>
