<?xml version="1.0" encoding="UTF-8"?><svg id="Layer_2" xmlns="http://www.w3.org/2000/svg" viewBox="0 0 122.91 73.845"><defs><style>.cls-1{fill:#fff;}</style></defs><path class="cls-1" d="m30.994,21.331c1.623-3.169,3.725-6.054,6.27-8.599,3.142-3.142,6.801-5.609,10.875-7.332,4.217-1.784,8.697-2.688,13.316-2.688s9.099.904,13.316,2.688c4.074,1.723,7.732,4.19,10.875,7.332,2.545,2.545,4.647,5.43,6.27,8.599h3.015c-1.821-3.909-4.294-7.443-7.368-10.517-3.391-3.39-7.339-6.053-11.736-7.912-4.553-1.926-9.388-2.902-14.372-2.902s-9.82.976-14.372,2.902c-4.397,1.86-8.345,4.522-11.736,7.912-3.074,3.074-5.546,6.607-7.368,10.517h3.015Z"/><path class="cls-1" d="m94.813,44.56c-.442,1.936-1.054,3.833-1.835,5.678-1.723,4.074-4.19,7.732-7.332,10.875-3.142,3.142-6.801,5.609-10.875,7.332-4.217,1.784-8.697,2.688-13.316,2.688s-9.099-.904-13.316-2.688c-4.074-1.723-7.732-4.19-10.875-7.332-3.142-3.142-5.609-6.801-7.332-10.875-.781-1.846-1.393-3.742-1.835-5.678h-2.776c.484,2.3,1.189,4.55,2.113,6.735,1.86,4.397,4.522,8.345,7.912,11.736,3.39,3.39,7.339,6.053,11.736,7.912,4.553,1.926,9.388,2.902,14.372,2.902s9.82-.976,14.372-2.902c4.397-1.86,8.345-4.522,11.736-7.912,3.39-3.391,6.053-7.339,7.912-11.736.924-2.185,1.629-4.435,2.113-6.735h-2.775Z"/><rect class="cls-1" x="60.288" y="28.667" width="1.651" height="13.524"/><path class="cls-1" d="m55.235,22.645c-.703,0-1.334.131-1.893.391-.56.261-1.001.667-1.324,1.217-.323.551-.484,1.253-.484,2.107v2.32h-2.306v1.196h2.306v12.314h1.637v-12.314h2.961v-1.196h-2.961v-2.306c0-.674.114-1.182.342-1.523.228-.342.508-.574.84-.698.332-.123.66-.185.982-.185.266,0,.546.031.84.093.294.062.593.154.897.278l.313-1.352c-.361-.123-.721-.211-1.082-.263-.361-.052-.717-.078-1.068-.078Z"/><path class="cls-1" d="m61.982,23.193c-.209-.194-.498-.292-.868-.292-.351,0-.636.097-.854.292-.218.195-.327.453-.327.776,0,.332.109.607.327.826.218.218.503.327.854.327.37,0,.66-.109.868-.327.209-.218.313-.493.313-.826,0-.323-.105-.581-.313-.776Z"/><path class="cls-1" d="m7.431,42.504c-1.547,0-2.876-.401-3.986-1.203-1.11-.802-1.962-1.898-2.555-3.288-.593-1.39-.89-2.977-.89-4.762,0-1.936.33-3.566.989-4.89.66-1.324,1.552-2.328,2.676-3.011,1.125-.683,2.38-1.025,3.765-1.025,1.794,0,3.257.456,4.392,1.367,1.134.911,1.943,2.093,2.427,3.545l-1.794.399c-.399-1.186-1.046-2.123-1.943-2.812-.897-.688-1.924-1.032-3.082-1.032-.997,0-1.924.283-2.783.847-.859.565-1.552,1.402-2.079,2.513-.527,1.11-.79,2.477-.79,4.1,0,1.452.202,2.764.605,3.936.403,1.172,1.023,2.102,1.858,2.79.835.688,1.898,1.032,3.189,1.032,1.518,0,2.735-.408,3.651-1.224.916-.816,1.374-1.903,1.374-3.26h1.836c0,1.234-.294,2.297-.883,3.189-.588.892-1.4,1.58-2.434,2.064-1.034.484-2.216.726-3.545.726Z"/><path class="cls-1" d="m23.318,42.504c-1.205,0-2.268-.27-3.189-.811-.921-.541-1.644-1.338-2.171-2.392-.527-1.053-.79-2.344-.79-3.872s.263-2.816.79-3.865c.527-1.049,1.25-1.843,2.171-2.384.92-.541,1.983-.811,3.189-.811s2.268.27,3.189.811c.92.541,1.642,1.336,2.164,2.384.522,1.049.783,2.337.783,3.865s-.261,2.819-.783,3.872c-.522,1.053-1.243,1.851-2.164,2.392-.921.541-1.984.811-3.189.811Zm-.029-1.438c.997,0,1.827-.235,2.491-.705.664-.47,1.16-1.127,1.488-1.972.327-.845.491-1.831.491-2.961,0-1.699-.363-3.065-1.089-4.1-.726-1.034-1.834-1.552-3.324-1.552-.996,0-1.825.235-2.484.705-.66.47-1.153,1.13-1.481,1.979-.327.849-.491,1.839-.491,2.968,0,1.689.363,3.051,1.089,4.086.726,1.035,1.829,1.552,3.31,1.552Z"/><path class="cls-1" d="m44.686,31.08c-.418-.878-1.008-1.549-1.772-2.014-.764-.465-1.668-.698-2.712-.698-1.177,0-2.162.297-2.954.89-.738.553-1.307,1.319-1.708,2.3l-.221-2.876h-1.395v13.51h1.651v-6.563c0-1.167.168-2.187.505-3.061.337-.873.826-1.552,1.466-2.036.641-.484,1.402-.726,2.285-.726,1.205,0,2.152.38,2.84,1.139.688.759,1.032,1.856,1.032,3.288v7.958h1.609v-7.958c0-1.224-.209-2.275-.626-3.153Z"/><path class="cls-1" d="m77.214,22.83v8.087c-.417-.78-.971-1.392-1.666-1.831-.759-.479-1.628-.719-2.605-.719-1.053,0-2.024.283-2.911.847-.888.565-1.599,1.372-2.135,2.42-.536,1.049-.804,2.299-.804,3.751s.271,2.71.811,3.772c.541,1.063,1.265,1.886,2.171,2.47.906.584,1.896.876,2.968.876.93,0,1.767-.235,2.513-.705.718-.453,1.289-1.104,1.716-1.949l.184,2.34h1.395v-19.361h-1.637Zm-2.121,17.695c-.617.342-1.258.512-1.922.512-.778,0-1.5-.223-2.164-.669-.664-.446-1.196-1.091-1.594-1.936-.399-.845-.598-1.86-.598-3.046,0-1.177.202-2.178.605-3.004.403-.826.935-1.461,1.594-1.908.66-.446,1.374-.669,2.143-.669.702,0,1.362.171,1.979.512.617.342,1.118.847,1.502,1.516.384.669.576,1.502.576,2.498v2.207c0,.978-.199,1.801-.598,2.47-.399.669-.906,1.174-1.523,1.516Z"/><path class="cls-1" d="m94.503,32.966c-.176-.873-.477-1.656-.904-2.349-.427-.693-.989-1.241-1.687-1.644-.698-.403-1.545-.605-2.541-.605-1.186,0-2.228.285-3.125.854-.897.569-1.599,1.386-2.107,2.449-.508,1.063-.762,2.335-.762,3.815,0,1.357.256,2.565.769,3.623.512,1.058,1.217,1.889,2.114,2.491s1.934.904,3.111.904c.94,0,1.784-.169,2.534-.505.75-.337,1.369-.823,1.858-1.459.489-.636.804-1.405.947-2.306h-1.765c-.123.949-.501,1.668-1.132,2.157-.631.489-1.445.733-2.441.733-.968,0-1.772-.242-2.413-.726-.641-.484-1.12-1.139-1.438-1.965-.315-.818-.473-1.739-.476-2.762h9.666c.038-.93-.031-1.832-.206-2.705Zm-8.983-.562c.318-.792.799-1.438,1.445-1.936.645-.498,1.452-.747,2.42-.747.759,0,1.381.157,1.865.47.484.313.861.726,1.132,1.238.271.512.456,1.075.555,1.687.077.471.115.943.116,1.416h-7.997c.041-.748.195-1.458.464-2.128Z"/><path class="cls-1" d="m109.999,31.08c-.418-.878-1.008-1.549-1.772-2.014-.764-.465-1.668-.698-2.712-.698-1.177,0-2.162.297-2.954.89-.738.553-1.307,1.319-1.708,2.3l-.221-2.876h-1.395v13.51h1.651v-6.563c0-1.167.168-2.187.505-3.061.337-.873.826-1.552,1.466-2.036.641-.484,1.402-.726,2.285-.726,1.205,0,2.152.38,2.84,1.139.688.759,1.032,1.856,1.032,3.288v7.958h1.609v-7.958c0-1.224-.209-2.275-.626-3.153Z"/><path class="cls-1" d="m122.683,40.596c-.475.171-.902.304-1.281.399-.38.095-.778.142-1.196.142-1.424,0-2.135-.769-2.135-2.306v-8.954h4.57v-1.196h-4.57v-3.844h-1.609v3.844h-2.32v1.196h2.32v8.983c0,.797.154,1.466.463,2.007.308.541.735.949,1.281,1.224.546.275,1.17.413,1.872.413.493,0,.973-.064,1.438-.192.465-.128.93-.296,1.395-.505l-.228-1.21Z"/><path class="cls-1" d="m45.131,50.527v-5.009h3.145v.645h-2.398v1.526h2.257v.645h-2.257v1.541h2.398v.653h-3.145Z"/><path class="cls-1" d="m50.419,50.527l1.714-5.009h.924l1.663,5.009h-.786l-.389-1.195h-1.934l-.405,1.195h-.786Zm1.38-1.769h1.561l-.778-2.339-.782,2.339Z"/><path class="cls-1" d="m55.978,46.163v-.645h3.948v.645h-1.769l.169-.173v4.537h-.747v-4.537l.165.173h-1.765Z"/><path class="cls-1" d="m62.08,50.527v-5.009h3.145v.645h-2.398v1.526h2.257v.645h-2.257v1.541h2.398v.653h-3.145Z"/><path class="cls-1" d="m71.678,50.527l-1.388-2.059c.32-.062.581-.182.781-.362.305-.275.458-.636.458-1.081,0-.451-.153-.814-.458-1.091-.305-.276-.75-.415-1.335-.415h-1.793v5.009h.747v-2.009h.807l1.21,2.009h.971Zm-2.988-4.364h1.046c.336,0,.59.083.765.25s.261.39.261.67c0,.273-.093.495-.279.667-.186.172-.457.257-.814.257h-.979v-1.844Z"/><path class="cls-1" d="m75.881,50.629c-.341,0-.654-.061-.94-.183s-.516-.303-.69-.545-.265-.543-.273-.904h.731c0,.218.053.396.159.535.106.139.247.242.423.309.176.067.37.1.582.1.215,0,.405-.033.57-.098.165-.065.293-.153.383-.263.09-.11.136-.236.136-.377,0-.191-.059-.345-.177-.462-.118-.117-.298-.216-.539-.297l-.932-.346c-.401-.149-.706-.322-.916-.517-.21-.195-.314-.467-.314-.816,0-.396.155-.718.464-.965s.744-.372,1.305-.372c.532,0,.946.123,1.24.37.295.246.463.582.505,1.007h-.735c-.037-.215-.137-.385-.301-.511-.164-.126-.4-.189-.71-.189-.299,0-.532.065-.7.195-.168.13-.252.293-.252.49,0,.163.053.292.159.389.106.097.272.185.497.263l1.062.389c.364.128.649.301.853.519s.307.494.307.83c0,.283-.073.533-.22.751-.147.218-.362.389-.645.513-.283.124-.628.187-1.034.187Z"/></svg>